<svg xmlns="http://www.w3.org/2000/svg" width="60.331" height="60.331" viewBox="0 0 60.331 60.331"><g transform="translate(0)"><circle cx="30.165" cy="30.165" r="30.165" fill="#fff"/><circle cx="28.424" cy="28.424" r="28.424" transform="translate(1.74 1.74)" fill="#fff" stroke="#533b79" stroke-width="3"/></g><g transform="translate(18.02 15.975)"><path d="M987.7,188.108h-14.25V159.726h14.238a16.99,16.99,0,0,1,4.3.666,6.283,6.283,0,0,1,2.684,1.7,6.363,6.363,0,0,1,1.619,5.2,5.358,5.358,0,0,1-2.117,4.31,8.12,8.12,0,0,1-2.181,1.27h0a6.376,6.376,0,0,1,2.687,1.007,7.218,7.218,0,0,1,3.04,5.895,6.987,6.987,0,0,1-1.945,5.444C992.935,188.075,987.906,188.108,987.7,188.108Zm-.012-3.961h.151a4.45,4.45,0,1,0,.149-8.877l-.152.006h-9.353v8.865Zm-9.205-20.18V171.7h9.205a4.149,4.149,0,0,0,3.557-4.066,3.35,3.35,0,0,0-1.771-3.151,4.472,4.472,0,0,0-1.786-.512Z" transform="translate(-973.448 -159.726)" fill="#533b79"/></g></svg>