<svg xmlns="http://www.w3.org/2000/svg" xmlns:xlink="http://www.w3.org/1999/xlink" width="367.422" height="359.182" viewBox="0 0 367.422 359.182"><defs><style>.a,.aa,.ac,.ae,.ai,.al,.an,.aq,.as,.aw,.d,.f,.j,.m,.n,.o,.q,.s,.u,.w,.y{fill:none;}.a{stroke:#bdbdbd;stroke-dasharray:2;}.a,.al{stroke-miterlimit:10;}.a,.al,.am{stroke-width:2px;}.b{fill:#c0c0bf;}.aj,.c,.l{fill:#fff;}.d,.g,.l{stroke:#aeb0b3;}.aa,.ac,.ae,.ai,.aj,.an,.aq,.as,.aw,.d,.f,.g,.j,.l,.q,.s,.u,.w,.y{stroke-width:3px;}.e{fill:#f5ce0f;}.f{stroke:#f5ce0f;}.aa,.ac,.ae,.ai,.an,.aq,.as,.aw,.f,.j,.q,.s,.u,.w,.y{opacity:0;}.g{fill:#f5f5f5;}.h{fill:#0062ad;}.i{fill:#73c4ef;}.j{stroke:#0062ad;}.k{fill:#d6d6d6;}.n,.o,.q{stroke:#69c7dd;}.o{stroke-miterlimit:4.002;}.p{fill:#9adff4;isolation:isolate;}.r{fill:#533b79;}.s{stroke:#533b79;}.t{fill:#ca73ae;}.u{stroke:#ca73ae;}.v{fill:#bc9bc9;}.w{stroke:#bc9bc9;}.x{fill:#ef4923;}.y{stroke:#ef4923;}.z{fill:#4159a7;}.aa{stroke:#4159a7;}.ab{fill:#f5841f;}.ac{stroke:#f5841f;}.ad{fill:#d15a9b;}.ae{stroke:#d15a9b;}.af{fill:url(#a);}.ag{fill:url(#b);}.ah{fill:url(#c);}.ai{stroke:#4a953f;}.aj{stroke:#000;}.ak{fill:#3e863d;}.al,.am,.an{stroke:#1a1818;}.am{fill:#1a1818;stroke-linejoin:round;}.ao{fill:#1e9bd8;}.ap{fill:#0070ba;}.aq{stroke:#1e9bd8;}.ar{fill:#6e54a4;}.as{stroke:#6e54a4;}.at,.au,.av{fill:#e1426a;}.at,.aw{stroke:#e1426a;}.au{stroke:#fff;stroke-width:0.5px;}.ax,.ay{stroke:none;}.ay{fill:#fff;}</style><linearGradient id="a" x1="0.5" x2="0.5" y2="1" gradientUnits="objectBoundingBox"><stop offset="0" stop-color="#3e863d"/><stop offset="1" stop-color="#6bbf46"/><stop offset="1" stop-color="#549537"/><stop offset="1" stop-color="#6bbf46"/></linearGradient><linearGradient id="b" x1="0.5" x2="0.5" y2="1" gradientUnits="objectBoundingBox"><stop offset="0" stop-color="#3e863d"/><stop offset="1" stop-color="#6bbf46"/></linearGradient><linearGradient id="c" x1="0.5" x2="0.5" y2="1" gradientUnits="objectBoundingBox"><stop offset="0" stop-color="#6bbf46"/><stop offset="0.661" stop-color="#6bbf46"/><stop offset="1" stop-color="#3e863d"/></linearGradient></defs><g transform="translate(-135.202 -5.874)"><g transform="translate(152.219 30.619)"><path class="a" d="M959.089,115.348l-47.845,26.293-35.776,42.242-3.448,54.741,52.156,33.271,30.172,10.7,23.708,39.736,65.087,31.816s-9.775,20.345-7.464,35.6,14.06,38.276,14.06,38.276l50.3-52.753,60.776-34.052,37.931-58.621L1188.4,230.865l-19.827-55.6L1106.5,130.434l-78.449-15.086Z" transform="translate(-872.02 -115.348)"/><path class="a" d="M875.468,192.148l53.449,15.086-56.9,42.673" transform="translate(-872.02 -126.63)"/><path class="a" d="M974.083,115.348l6.035,44.827,62.931-44.827v63.363l78.448-48.276-18.534,72.845,80.6-28.017-65.518,87.5,85.345-31.9" transform="translate(-887.014 -115.348)"/><path class="a" d="M1205.5,287.118l-95.69-19.828,57.758,78.449-71.12-21.121,10.344,55.173-56.9-21.121-7.759-93.1-57.328,61.288,2.155-91.461-56.035,41.029,4.741-75.943L918,146.169l53.415,15.086,63.4,21.982,59.914,24.569,15.086,59.483" transform="translate(-878.775 -119.876)"/><path class="a" d="M1052.939,361.862l46.552-34.052,13.362-57.328-67.672-1.724-55.173-30.172-51.293-34.914L974.921,167.9l15.086,70.69,47.845-52.156" transform="translate(-881.818 -123.068)"/><line class="a" x2="7.327" y2="77.155" transform="translate(156.036 68.534)"/><path class="a" d="M1116.1,218.422l-52.587,57.759,54.311,59.052" transform="translate(-900.152 -130.49)"/></g><g transform="translate(140.581 6.912)"><circle class="b" cx="15.086" cy="15.086" r="15.086" transform="translate(83.621 8.621)"/><circle class="b" cx="15.086" cy="15.086" r="15.086" transform="translate(0 77.156)"/><circle class="b" cx="15.086" cy="15.086" r="15.086" transform="translate(33.621 38.794)"/><circle class="b" cx="15.086" cy="15.086" r="15.086" transform="translate(-5.379 134.996)"/><circle class="b" cx="15.086" cy="15.086" r="15.086" transform="translate(94.449 53.88)"/></g><g transform="translate(282.419 143.147)"><circle class="c" cx="33.162" cy="33.162" r="33.162"/><circle class="d" cx="31.249" cy="31.249" r="31.249" transform="translate(1.914 1.913)"/><g transform="translate(13.869 21.08)"><path class="e" d="M1053.629,273.822h5.219v18.213s.426,7.285-8.026,7.482a8.947,8.947,0,0,1-7.59-4.936l4.245-2.283a3.722,3.722,0,0,0,3.343,2.6c2.542,0,2.809-2.867,2.809-2.867Z" transform="translate(-1043.231 -273.445)"/><path class="e" d="M1075.187,280.3l4.129-2.668a9.1,9.1,0,0,0-7.846-4.2c-3.751.353-6.451,2.138-7.157,5.619-.609,6.406,4.337,8.3,4.337,8.3l3.972,1.862s3.044.788,2.9,3.252a3.373,3.373,0,0,1-4.045,2.44,6.4,6.4,0,0,1-4.615-3.253l-4.22,2.518s3.038,5.137,8.836,5.232c1.789.013,7.7-.055,9.367-5.963a8.807,8.807,0,0,0-5.5-8.839c-3.2-1.522-2.575-.609-4.782-2.188a2.457,2.457,0,0,1,.916-4.513C1073.343,277.581,1075.187,280.3,1075.187,280.3Z" transform="translate(-1044.178 -273.425)"/></g><circle class="f" cx="31.249" cy="31.249" r="31.249" transform="translate(1.914 1.913)"/></g><g transform="translate(181.916 166.162)"><circle class="c" cx="22.18" cy="22.18" r="22.18"/><circle class="g" cx="20.901" cy="20.901" r="20.901" transform="translate(1.28 1.28)"/><g transform="translate(9.82 8.778)"><path class="h" d="M1047.086,186.4l6.587-3.46,6.493,3.472-6.493,3.918Z" transform="translate(-1041.256 -177.392)"/><path class="h" d="M1046.315,188.627l6.569,3.8,0,6.838-6.581-3.432Z" transform="translate(-1041.141 -178.228)"/><path class="h" d="M1055.7,192.131v7.134l6.524-3.444,0-7.2Z" transform="translate(-1042.521 -178.226)"/><path class="i" d="M1041.074,182.625l11.039-6.163v4.308l-7.479,3.956Z" transform="translate(-1040.373 -176.441)"/><path class="i" d="M1040.29,197.727l-.038-12.649,3.77,2.09-.171,8.463Z" transform="translate(-1040.252 -177.706)"/><path class="i" d="M1052.356,206.359l-11.282-5.7,3.572-2.409,7.461,3.989Z" transform="translate(-1040.373 -179.641)"/><path class="i" d="M1066.783,200.818l-10.933,6.352-.073-4.308,7.412-4.083Z" transform="translate(-1042.533 -179.719)"/><path class="i" d="M1068.518,185.184l.264,12.638-3.8-2.02.014-8.459Z" transform="translate(-1043.885 -177.722)"/><path class="i" d="M1055.355,176.437l11.187,5.9-3.615,2.348-7.395-4.119Z" transform="translate(-1042.471 -176.437)"/></g><circle class="j" cx="20.901" cy="20.901" r="20.901" transform="translate(1.28 1.28)"/></g><g transform="translate(345.054 210.523)"><circle class="k" cx="24.839" cy="24.839" r="24.839"/><circle class="l" cx="23.406" cy="23.406" r="23.406" transform="translate(1.433 1.433)"/><g transform="translate(8.888 7.85)"><g transform="translate(2.561 0.056)"><ellipse class="m" cx="15.95" cy="6.251" rx="15.95" ry="6.251" transform="translate(0 27.626) rotate(-60)"/><ellipse class="n" cx="15.472" cy="5.773" rx="15.472" ry="5.773" transform="translate(0.653 27.452) rotate(-60)"/></g><g transform="translate(2.744 0)"><ellipse class="m" cx="6.254" cy="15.957" rx="6.254" ry="15.957" transform="translate(0 6.063) rotate(-28.999)"/><ellipse class="o" cx="5.776" cy="15.479" rx="5.776" ry="15.479" transform="translate(0.65 6.25) rotate(-28.999)"/></g><g transform="translate(0 10.745)"><ellipse class="m" cx="15.95" cy="6.251" rx="15.95" ry="6.251"/><ellipse class="n" cx="15.472" cy="5.773" rx="15.472" ry="5.773" transform="translate(0.478 0.478)"/></g><circle class="p" cx="3.344" cy="3.344" r="3.344" transform="translate(12.615 13.262)"/></g><circle class="q" cx="23.406" cy="23.406" r="23.406" transform="translate(1.433 1.433)"/></g><g transform="translate(367.333 26.455)"><g transform="translate(0)"><circle class="c" cx="21.25" cy="21.25" r="21.25"/><circle class="l" cx="20.024" cy="20.024" r="20.024" transform="translate(1.225 1.225)"/></g><g transform="translate(12.694 11.254)"><path class="r" d="M983.487,179.72H973.448V159.726h10.03a11.968,11.968,0,0,1,3.031.469,4.425,4.425,0,0,1,1.891,1.195,4.483,4.483,0,0,1,1.141,3.66,3.775,3.775,0,0,1-1.492,3.037,5.719,5.719,0,0,1-1.536.894h0a4.492,4.492,0,0,1,1.893.71,5.085,5.085,0,0,1,2.141,4.153,4.922,4.922,0,0,1-1.37,3.835C987.176,179.7,983.633,179.72,983.487,179.72Zm-.009-2.79h.106a3.135,3.135,0,1,0,.105-6.253l-.107,0h-6.589v6.245Zm-6.485-14.216v5.445h6.485a2.923,2.923,0,0,0,2.506-2.865,2.36,2.36,0,0,0-1.248-2.22,3.15,3.15,0,0,0-1.258-.361Z" transform="translate(-973.448 -159.726)"/></g><circle class="s" cx="20.024" cy="20.024" r="20.024" transform="translate(1.227 1.227)"/></g><g transform="translate(282.419 5.951)"><g transform="translate(0 0)"><circle class="c" cx="24.668" cy="24.668" r="24.668"/><circle class="l" cx="23.245" cy="23.245" r="23.245" transform="translate(1.424 1.424)"/></g><g transform="translate(12.359 12.387)"><path class="t" d="M920.387,199.507V192.8h11.544v2.217H923v2.446h8.928v6.362l-11.544.269v-2.353h9.222v-2.228Z" transform="translate(-920.386 -192.796)"/><path class="t" d="M936.309,215.668v-6.711h11.544v2.217h-8.929v2.446h8.928v6.362l-11.544.269V217.9h9.222v-2.228Z" transform="translate(-923.237 -195.689)"/><path class="t" d="M920.387,215.668v-6.711h11.544v2.217H923v2.446h8.928v6.362l-11.544.269V217.9h9.222v-2.228Z" transform="translate(-920.386 -195.689)"/><path class="t" d="M938.766,203.866h-2.456V192.8h11.383v11.067h-2.51V199.4h-6.416v4.47Zm.116-8.811V197.5h6.339v-2.449Z" transform="translate(-923.237 -192.796)"/></g><circle class="u" cx="23.245" cy="23.245" r="23.245" transform="translate(1.424 1.424)"/></g><g transform="translate(451.408 125.956)"><g transform="translate(-2.898 -2.898)"><circle class="c" cx="20.089" cy="20.089" r="20.089"/><circle class="l" cx="18.93" cy="18.93" r="18.93" transform="translate(1.159 1.159)"/></g><g transform="translate(5.483 8.22)"><path class="v" d="M24.814-172.366c-.108.364-.809,2.522-1.551,4.827C20.688-159.57,20-157.4,20-157.17c0,.2.175.216,1.51.189l1.5-.04.243-.742c.135-.4.431-1.389.674-2.2l.431-1.443h5.03l.715,2.225.728,2.225h1.591a5.23,5.23,0,0,0,1.6-.121,8.946,8.946,0,0,0-.324-1.052c-.283-.8-1.928-5.839-4.221-12.891L28.832-173H25.016Zm2.468,3.438c.229.769.661,2.2.971,3.182a14,14,0,0,1,.485,1.861c-.04.027-.917.04-1.955.027l-1.874-.04.823-2.832c.458-1.564.876-2.993.93-3.209a.764.764,0,0,1,.135-.364A9.84,9.84,0,0,1,27.281-168.928Z" transform="translate(-20 173)"/><path class="v" d="M131.14-140.583a6.027,6.027,0,0,0-4.14,5.852,6.152,6.152,0,0,0,2.818,5.34c1.618.809,3.91.85,6.729.108.5-.121.58-.189.5-.431-.04-.162-.148-.607-.229-1-.189-.8-.189-.8-1.389-.5a11.335,11.335,0,0,1-1.955.2,3.529,3.529,0,0,1-2.926-1.119c-.431-.5-.8-1.47-.647-1.712a25.942,25.942,0,0,1,3.924-.135h3.829v-.984c-.013-2.737-1.065-4.706-2.913-5.407A9.277,9.277,0,0,0,131.14-140.583Zm2.427,2.171a2.646,2.646,0,0,1,1.321,1.9l.094.512h-2.575a23.735,23.735,0,0,1-2.575-.067c0-.027.121-.378.27-.782A2.438,2.438,0,0,1,133.567-138.412Z" transform="translate(-112.572 145.033)"/></g><circle class="w" cx="18.93" cy="18.93" r="18.93" transform="translate(-1.738 -1.738)"/></g><g transform="translate(345.153 93.056)"><g transform="translate(0 0)"><circle class="k" cx="22.18" cy="22.18" r="22.18"/><circle class="l" cx="20.901" cy="20.901" r="20.901" transform="translate(1.28 1.28)"/></g><g transform="translate(13.701 12.576)"><path class="x" d="M878.74,249.113l.3-3.319H862.081l.947,10.254H874.65l-.294,4.329-3.777,1.008-3.754-1.009-.3-2.845-3.38-.057.474,5.509L870.556,265l6.936-1.839.952-10.553-12.335.061-.176-3.441Z" transform="translate(-862.081 -245.794)"/></g><circle class="y" cx="20.901" cy="20.901" r="20.901" transform="translate(1.28 1.28)"/></g><g transform="translate(284.449 69.424)"><circle class="c" cx="24.596" cy="24.596" r="24.596"/><circle class="l" cx="23.177" cy="23.177" r="23.177" transform="translate(1.419 1.419)"/><g transform="translate(14.744 12.463)"><path class="z" d="M908.755,131.8h19.7l-1.349,21.416-8.4,2.852-8.815-2.852-.311-6.015h4.3v2.852l4.822,1.5,4.252-1.5.466-5.082h-9.54l-.207-4.407h9.748v-4.356H908.755Z" transform="translate(-908.755 -131.801)"/></g><circle class="aa" cx="23.177" cy="23.177" r="23.177" transform="translate(1.419 1.419)"/></g><g transform="translate(426.789 76.245)"><circle class="c" cx="16.81" cy="16.81" r="16.81"/><circle class="l" cx="15.84" cy="15.84" r="15.84" transform="translate(0.969 0.97)"/><g transform="translate(8.883 9.88)"><path class="ab" d="M1236.15,254.782h-2.559l3.8-11.245h3.032L1244.5,254.8l-2.705-.019-.885-2.442-3.863-.024Z" transform="translate(-1233.591 -242.766)"/><path class="c" d="M1239.6,246.288l-1.375,4.058h2.757Z" transform="translate(-1234.271 -243.171)"/><rect class="ab" width="2.453" height="8.551" transform="translate(11.884 3.483)"/><ellipse class="ab" cx="1.455" cy="1.419" rx="1.455" ry="1.419" transform="translate(11.656)"/></g><circle class="ac" cx="15.84" cy="15.84" r="15.84" transform="translate(0.969 0.97)"/></g><g transform="translate(455.408 176.133)"><circle class="c" cx="23.537" cy="23.537" r="23.537"/><circle class="l" cx="22.179" cy="22.179" r="22.179" transform="translate(1.358 1.358)"/><g transform="translate(13.9 17.303)"><path class="ad" d="M1258.914,303.471h2.631v11.564a18.373,18.373,0,0,1-3.362.905c-.828,0-4.64.069-4.64-4.678s4.114-4.476,4.114-4.476l1.358.025Z" transform="translate(-1242.274 -303.471)"/><path class="c" d="M1258.986,309.492v4.373s-2.789.735-2.789-2.048S1258.986,309.492,1258.986,309.492Z" transform="translate(-1242.526 -304.039)"/><path class="ad" d="M1241.342,303.82h3.006l2.2,4.136,2.362-4.325h2.734l-3.325,5.923,3.651,6.161h-3.33l-2.282-4.35-2.362,4.35h-2.9l3.572-6.043-3.572-5.854Z" transform="translate(-1241.095 -303.486)"/></g><circle class="ae" cx="22.179" cy="22.179" r="22.179" transform="translate(1.358 1.358)"/></g><g transform="translate(236.199 210.541)"><circle class="c" cx="24.821" cy="24.821" r="24.821"/><circle class="l" cx="23.389" cy="23.389" r="23.389" transform="translate(1.432 1.432)"/><g transform="translate(11.957 9.967)"><path class="af" d="M484.5,60.021l-4.287,7.428-8.576-14.854Z" transform="translate(-458.77 -52.595)"/><path class="ag" d="M530.51,99.865v14.854l-4.287-7.426Z" transform="translate(-504.784 -92.439)"/><path class="ah" d="M415.479,74.874,402.616,82.3,394.04,67.448l-4.287-7.428,12.863-7.426,8.576,14.854Z" transform="translate(-389.753 -52.595)"/><path class="ag" d="M394.04,107.293l-4.287,7.426V99.865Z" transform="translate(-389.753 -92.439)"/><path class="ag" d="M402.616,162l-12.863-7.428,4.287-7.426Z" transform="translate(-389.753 -132.291)"/></g><circle class="ai" cx="23.389" cy="23.389" r="23.389" transform="translate(1.432 1.432)"/></g><g transform="translate(189.126 96.661)"><circle class="c" cx="18.575" cy="18.575" r="18.575"/><circle class="aj" cx="16.755" cy="16.755" r="16.755" transform="translate(1.82 1.82)"/><g transform="translate(2.145 2.155)"><path d="M57.506-303.71a16.679,16.679,0,0,0-12.8,11.282A15.183,15.183,0,0,0,44-287.5a15.846,15.846,0,0,0,4.864,11.7,16.139,16.139,0,0,0,8.718,4.548,20.616,20.616,0,0,0,5.647,0,16.607,16.607,0,0,0,12.912-11.295,15.466,15.466,0,0,0,.72-4.94,15.83,15.83,0,0,0-4.75-11.56,16.21,16.21,0,0,0-8.857-4.662A21.89,21.89,0,0,0,57.506-303.71Zm-1.061,6.368a5.4,5.4,0,0,1,.973.884l.543.619.758-.278a7.08,7.08,0,0,1,2.716-.265,7,7,0,0,1,2.7.265l.745.265.644-.708c.606-.657,1.756-1.365,2-1.213.328.2.493,2.312.24,2.994-.114.278-.063.43.3.973a5.023,5.023,0,0,1,.834,2.817c.4,3.664-1.087,5.951-4.409,6.747-.467.114-.859.215-.884.227a4.09,4.09,0,0,0,.253.644c.265.581.291.783.291,3.4v2.78l-2.742.038-2.754.025v-2.716H57.493a3.239,3.239,0,0,1-1.9-.354,4.436,4.436,0,0,1-2.009-2.236,7.383,7.383,0,0,0-1.087-1.491,5.811,5.811,0,0,1-.67-.733,1.713,1.713,0,0,1,.569-.051,2.353,2.353,0,0,1,2.072,1.251,3.089,3.089,0,0,0,2.742,1.668c1.175.025,1.4-.076,1.491-.682a5.4,5.4,0,0,1,.316-1.036l.227-.518-.9-.215a5.618,5.618,0,0,1-4.119-3.209c-.733-1.92-.3-5.711.745-6.658.215-.2.227-.253.051-.809a4.878,4.878,0,0,1,.088-2.514c.126-.366.177-.392.518-.291A4.151,4.151,0,0,1,56.445-297.343Z" transform="translate(-44 303.9)"/></g></g><g transform="translate(307.787 316.533)"><g transform="translate(1.258 1.258)"><circle class="c" cx="23.562" cy="23.562" r="23.562"/><circle class="l" cx="22.203" cy="22.203" r="22.203" transform="translate(1.359 1.359)"/></g><g transform="translate(133.524 141.147)"><path class="ak" d="M12.245-107.5C5.529-98.9,5.3-91.116,11.564-84.27c1.622,1.752,1.882,2.239,2.109,3.731.292,2.271,1.006,2.239,1.265-.032.195-1.525.454-1.979,1.979-3.6A18.762,18.762,0,0,0,21.4-92.9a15.735,15.735,0,0,0-1.33-8.793c-.714-1.622-5.354-8.306-5.743-8.306A30.6,30.6,0,0,0,12.245-107.5Zm2.531,17.1c.26,5.029.227,6.911-.032,7.236-.324.389-.422.389-.811,0s-.389-1.46-.13-6.749c.195-3.472.389-6.814.389-7.43C14.289-99.39,14.452-97.314,14.776-90.4Z" transform="translate(-123 -20.9)"/></g></g><g transform="translate(357.428 267.7)"><circle class="c" cx="22.18" cy="22.18" r="22.18"/><circle class="l" cx="20.901" cy="20.901" r="20.901" transform="translate(1.28 1.28)"/><g transform="translate(13.691 12.78)"><path class="al" d="M316.625,243.6" transform="translate(-314.485 -227.553)"/><path class="am" d="M312.078,226.346V211.011h2.139l14.446,21.439a.9.9,0,0,1-.285,1.28l-.407.244a.7.7,0,0,1-.935-.2l-12.82-18.248v10.818Z" transform="translate(-312.078 -210.298)"/><path class="am" d="M338.2,223.047l-2.377-3.328V209.5H338.2Z" transform="translate(-322.483 -209.495)"/></g><circle class="an" cx="20.901" cy="20.901" r="20.901" transform="translate(1.28 1.28)"/></g><g transform="translate(299.389 249.912)"><g transform="translate(-2.909 -2.909)"><circle class="c" cx="23.129" cy="23.129" r="23.129"/><circle class="l" cx="21.794" cy="21.794" r="21.794" transform="translate(1.334 1.334)"/></g><g transform="translate(6.561 12.726)"><path d="M54.662-146.433a6.666,6.666,0,0,0-4.325,5.068c-1.07,4.259.83,8.257,4.456,9.305a12.878,12.878,0,0,0,6.05-.2c.83-.306.874-.371.83-1.136a4.351,4.351,0,0,0-.131-.917,5.146,5.146,0,0,0-1.376.262c-4.085,1.07-7.339-.59-7.558-3.823l-.066-.983,5.089.044,5.068.022v-1.354a6.679,6.679,0,0,0-3.036-6.007A6.773,6.773,0,0,0,54.662-146.433Zm3.058,1.573a4.021,4.021,0,0,1,2.337,2.556c.481,1.682.7,1.595-3.691,1.595H52.434l.131-.612a4.892,4.892,0,0,1,2.709-3.407A3.048,3.048,0,0,1,57.72-144.86Z" transform="translate(-50.041 146.777)"/><path d="M115.218-145.891c0,.044,1,1.551,2.25,3.32s2.315,3.342,2.4,3.495a19.013,19.013,0,0,1-2.359,3.866c-1.376,1.966-2.512,3.648-2.512,3.713a3.567,3.567,0,0,0,1.311.131h1.332l1.595-2.468c.874-1.332,1.726-2.687,1.878-2.992.262-.5.306-.5.524-.131.131.218,1,1.573,1.922,2.992l1.682,2.6h2.883l-2.534-3.735a24.446,24.446,0,0,1-2.425-4c.044-.131,1.136-1.726,2.425-3.517l2.315-3.276-1.223-.066a2.91,2.91,0,0,0-1.551.2,25.648,25.648,0,0,0-1.878,2.752,21.7,21.7,0,0,1-1.682,2.446,27.7,27.7,0,0,1-1.878-2.709L117.949-146h-1.354A4.228,4.228,0,0,0,115.218-145.891Z" transform="translate(-100.811 146.17)"/></g><circle class="an" cx="21.794" cy="21.794" r="21.794" transform="translate(-1.575 -1.575)"/></g><g transform="translate(364.951 159.775)"><g transform="translate(-1.484 -1.484)"><circle class="c" cx="20.69" cy="20.69" r="20.69"/><circle class="l" cx="19.496" cy="19.496" r="19.496" transform="translate(1.194 1.194)"/></g><g transform="translate(6.782 10.47)"><path class="ao" d="M152.222,97.2v10.835l2.969,1.464v-6.791l6.3,3.375v-3.619Z" transform="translate(-152.222 -97.203)"/><path class="ap" d="M270.479,111.524l6.214-3.649V97.2l-9.272,5.264v3.619l6.262-3.5.041,3.619-6.3,3.538Z" transform="translate(-258.15 -97.203)"/><path class="ao" d="M273.643,256.675v3.556l-6.222-3.556v-3.619Z" transform="translate(-258.15 -240.513)"/><path class="ap" d="M422.537,99.01v3.5l3.091-1.749V97.2Z" transform="translate(-400.782 -97.203)"/><path class="ap" d="M354.08,185.487v7.105l-9.353,5.508v-3.557l6.262-3.619v-3.66Z" transform="translate(-329.234 -178.382)"/></g><circle class="aq" cx="19.496" cy="19.496" r="19.496" transform="translate(-0.291 -0.291)"/></g><g transform="translate(420.515 237.884)"><g transform="translate(-1.484 -1.484)"><circle class="c" cx="20.69" cy="20.69" r="20.69"/><circle class="l" cx="20.69" cy="20.69" r="20.69" transform="translate(0 0)"/></g><g transform="translate(-19.649 201.315)"><path class="ar" d="M67.648-194.346c-2.592.581-4.707,2.8-5.675,5.958a9.309,9.309,0,0,0-.372,3.5,11.332,11.332,0,0,0,1.341,6.077c.521,1.117.611,1.445.477,1.653-.462.745.417,2.145,1.49,2.339a1.84,1.84,0,0,0,2.041-2.085,2.017,2.017,0,0,0-1.773-1.579c-.3,0-.462-.164-.834-.849-2.458-4.573-1.281-11.291,2.279-12.989a5.116,5.116,0,0,1,4.6-.223,6.825,6.825,0,0,1,2.1,2.279,12.389,12.389,0,0,1,1.073,2.949c.089.417.194.506.715.655a3.562,3.562,0,0,1,.76.253c.223.134-.045-1.683-.417-2.771a8.067,8.067,0,0,0-2.175-3.575,9.642,9.642,0,0,0-2.354-1.49A6.908,6.908,0,0,0,67.648-194.346Z" transform="translate(-30.469 0)"/><path class="ar" d="M90.543-142.591a1.714,1.714,0,0,0-1.043,1.624,1.722,1.722,0,0,0,1.966,1.817,1.358,1.358,0,0,0,1.058-.536l.551-.551,1.415.089a12.158,12.158,0,0,1,6.167,2.041c2.473,1.564,4.35,4.707,4.052,6.822a5.149,5.149,0,0,1-2.9,3.873,4.113,4.113,0,0,1-2.249.372,6.5,6.5,0,0,1-2.294-.313l-.894-.3-.641.521c-.357.3-.6.6-.536.655a7.392,7.392,0,0,0,3.56.834,6.846,6.846,0,0,0,5.809-2.1,4.828,4.828,0,0,0,1.564-3.947,8.207,8.207,0,0,0-3.009-6.331,16.179,16.179,0,0,0-2.234-1.773,13.991,13.991,0,0,0-6.688-1.892c-1.147,0-1.207-.015-1.609-.462a1.363,1.363,0,0,0-1.073-.521A2.581,2.581,0,0,0,90.543-142.591Z" transform="translate(-54.213 -44.099)"/><path class="ar" d="M28.242-114.555A7.42,7.42,0,0,0,25.8-108.97c.015,3.4,1.892,5.556,5.348,6.167a10.266,10.266,0,0,0,5.407-.641,12.515,12.515,0,0,0,6.956-5.9,1.471,1.471,0,0,1,.909-.849,1.53,1.53,0,0,0,.938-.953,1.323,1.323,0,0,0,.134-1.177,1.838,1.838,0,0,0-2.4-1.236,1.8,1.8,0,0,0-.953,2.547c.253.521.253.566-.015,1.073a13.3,13.3,0,0,1-6.912,5.377,11.289,11.289,0,0,1-5.139-.015,4.961,4.961,0,0,1-2.532-2.488,3.542,3.542,0,0,1-.343-2.2,4.051,4.051,0,0,1,.566-2.234,9.516,9.516,0,0,1,1.341-1.817l.819-.864-.149-.67a2.642,2.642,0,0,0-.253-.775C29.448-115.688,28.882-115.2,28.242-114.555Z" transform="translate(0 -67.115)"/></g><circle class="as" cx="20.69" cy="20.69" r="20.69" transform="translate(-1.484 -1.484)"/></g><g transform="translate(236.199 125.032)"><g transform="translate(0 0)"><circle class="k" cx="21.536" cy="21.536" r="21.536"/><circle class="l" cx="20.294" cy="20.294" r="20.294" transform="translate(1.242 1.242)"/></g><g transform="translate(14.693 11.183)"><path class="at" d="M31.925,884.027l1.354-1.4,3.932,3.462L35.718,887.7" transform="translate(-24.562 -874.962)"/><path class="at" d="M35.832,888.853l-3.779-3.662" transform="translate(-24.617 -876.073)"/><path class="at" d="M32.053,894.839v-9.573" transform="translate(-24.617 -876.106)"/><path class="at" d="M30.476,894.636H28.357v-9.445h2.119" transform="translate(-23.016 -876.073)"/><path class="at" d="M21.256,869.1l-2.326,1.81,1.533,1.4,2.441,2.231,1.347-1.066" transform="translate(-18.93 -869.101)"/><path class="at" d="M25.808,873.448,22.475,869.2" transform="translate(-20.466 -869.145)"/><g class="au" transform="translate(2.918 17.393)"><ellipse class="ax" cx="2.899" cy="3.313" rx="2.899" ry="3.313"/><ellipse class="m" cx="2.899" cy="3.313" rx="2.649" ry="3.063"/></g><g class="au" transform="translate(2.918 3.311)"><ellipse class="ax" cx="2.899" cy="3.313" rx="2.899" ry="3.313"/><ellipse class="m" cx="2.899" cy="3.313" rx="2.649" ry="3.063"/></g><g class="av" transform="translate(10.373 9.938)"><path class="ax" d="M 3.313274383544922 6.37654447555542 C 1.624184370040894 6.37654447555542 0.250004380941391 5.002364158630371 0.250004380941391 3.313274383544922 C 0.250004380941391 1.624184370040894 1.624184370040894 0.250004380941391 3.313274383544922 0.250004380941391 C 5.002364158630371 0.250004380941391 6.37654447555542 1.624184370040894 6.37654447555542 3.313274383544922 C 6.37654447555542 5.002364158630371 5.002364158630371 6.37654447555542 3.313274383544922 6.37654447555542 Z"/><path class="ay" d="M 3.313274383544922 0.5000042915344238 C 1.76203441619873 0.5000042915344238 0.5000042915344238 1.76203441619873 0.5000042915344238 3.313274383544922 C 0.5000042915344238 4.864514350891113 1.76203441619873 6.12654447555542 3.313274383544922 6.12654447555542 C 4.864514350891113 6.12654447555542 6.12654447555542 4.864514350891113 6.12654447555542 3.313274383544922 C 6.12654447555542 1.76203441619873 4.864514350891113 0.5000042915344238 3.313274383544922 0.5000042915344238 M 3.313274383544922 4.291534423828125e-06 C 5.143144607543945 4.291534423828125e-06 6.62654447555542 1.483404159545898 6.62654447555542 3.313274383544922 C 6.62654447555542 5.143144607543945 5.143144607543945 6.62654447555542 3.313274383544922 6.62654447555542 C 1.483404159545898 6.62654447555542 4.291534423828125e-06 5.143144607543945 4.291534423828125e-06 3.313274383544922 C 4.291534423828125e-06 1.483404159545898 1.483404159545898 4.291534423828125e-06 3.313274383544922 4.291534423828125e-06 Z"/></g></g><circle class="aw" cx="20.294" cy="20.294" r="20.294" transform="translate(1.242 1.242)"/></g></g></svg>