<svg xmlns="http://www.w3.org/2000/svg" width="58" height="58" viewBox="0 0 58 58"><g transform="translate(-79.773 -80.773)"><g transform="translate(79.773 80.773)" fill="#de33a6" stroke="#de33a6" stroke-width="3"><circle cx="29" cy="29" r="29" stroke="none"/><circle cx="29" cy="29" r="27.5" fill="none"/></g><g transform="translate(75.604 312.26)"><path d="M31.678-221.637a3.987,3.987,0,0,0-2.106,3.746l.056.652-4.174,2.4-4.174,2.4-.745-.485a3.974,3.974,0,0,0-3.895-.056,3.633,3.633,0,0,0-1.3,4.528,3.744,3.744,0,0,0,2.05,1.919l.41.112v9.839l-.41.112A3.734,3.734,0,0,0,15-193.052a3.359,3.359,0,0,0,1.267,2.683,3.5,3.5,0,0,0,4.342.261l.671-.447,4.174,2.4,4.174,2.4-.056.652a3.93,3.93,0,0,0,2.143,3.746,4.325,4.325,0,0,0,2.907,0,3.8,3.8,0,0,0,2.087-3.82l-.112-.671,4.062-2.329c2.218-1.286,4.1-2.348,4.174-2.385a2.062,2.062,0,0,1,.857.41,3.472,3.472,0,0,0,4.379-.224,3.359,3.359,0,0,0,1.267-2.683,3.745,3.745,0,0,0-2.367-3.41l-.429-.112v-9.839l.429-.112A3.772,3.772,0,0,0,51-208.444a3.633,3.633,0,0,0-1.3-4.528,3.974,3.974,0,0,0-3.895.056l-.764.5-4.211-2.441L36.616-217.3l.112-.6a3.861,3.861,0,0,0-2.106-3.746A4.679,4.679,0,0,0,31.678-221.637Zm-6.448,15.411c-2.982,5.162-5.5,9.466-5.59,9.578a29.549,29.549,0,0,1-.168-4.808v-4.975l.615-.261a3.667,3.667,0,0,0,1.789-1.845,5.315,5.315,0,0,0,.2-1.491V-211l4.249-2.46a41.241,41.241,0,0,1,4.286-2.311C30.635-215.693,28.212-211.407,25.231-206.226Zm15.635-6.727L44.257-211v.969a5.315,5.315,0,0,0,.2,1.491,3.631,3.631,0,0,0,1.808,1.845l.6.261v4.975a29.955,29.955,0,0,1-.168,4.808c-.261-.28-11.013-18.97-11.013-19.138,0-.093.41.075.894.354C37.064-215.134,39-214.034,40.865-212.954ZM37.9-208.518c1.994,3.447,4.472,7.733,5.5,9.522,1.547,2.7,1.826,3.28,1.64,3.541a6.123,6.123,0,0,0-.5.894l-.28.615H22.081l-.28-.615a6.123,6.123,0,0,0-.5-.894c-.186-.261.093-.839,1.64-3.541,1.025-1.789,3.5-6.075,5.5-9.522l3.615-6.3h2.236Zm6.317,16.473a43.178,43.178,0,0,1-4.23,2.646l-4.137,2.385-.41-.373a3.666,3.666,0,0,0-4.51-.037c-.373.335-.447.3-4.6-2.106a49.4,49.4,0,0,1-4.249-2.59c0-.093,4.994-.149,11.106-.149C41.983-192.269,44.275-192.213,44.219-192.045Z" transform="translate(0 0)" fill="#fff"/></g></g></svg>