<svg xmlns="http://www.w3.org/2000/svg" width="960" height="402" viewBox="0 0 960 402"><g transform="translate(-508 -304)"><rect width="960" height="402" transform="translate(508 304)" fill="#fff"/><text transform="translate(588 533)" font-size="92" font-family="Roboto-Regular, Roboto"><tspan x="0" y="0" xml:space="preserve">Quick                 Intro</tspan></text><path d="M52.534,96.393l43.909-27.83L52.534,40.579Zm15.925,37.879a64.626,64.626,0,0,1-25.588-5.1A65.451,65.451,0,0,1,7.852,94.152a64.626,64.626,0,0,1-5.1-25.588A65.109,65.109,0,0,1,21.922,21.949,67.467,67.467,0,0,1,42.871,7.879,63.793,63.793,0,0,1,68.459,2.7,64.176,64.176,0,0,1,94.2,7.879a65.859,65.859,0,0,1,34.942,34.942,64.176,64.176,0,0,1,5.179,25.742,63.793,63.793,0,0,1-5.179,25.588,67.467,67.467,0,0,1-14.069,20.95,65.109,65.109,0,0,1-46.615,19.172Z" transform="translate(937.739 436.514)"/></g></svg>