<svg xmlns="http://www.w3.org/2000/svg" width="58" height="58" viewBox="0 0 58 58"><g transform="translate(-79.773 -80.773)"><g transform="translate(79.773 80.773)" fill="#3b3b3b" stroke="#3b3b3b" stroke-width="3"><circle cx="29" cy="29" r="29" stroke="none"/><circle cx="29" cy="29" r="27.5" fill="none"/></g><g transform="translate(91.378 243.091)"><path d="M0-133.7v7.3H3.7v-5.012h1.34a15.787,15.787,0,0,0,2.975-.251c.022-.022.578-1.678,1.231-3.683l1.2-3.639-.676-.665C8.554-140.837,7.78-141,3.247-141H0Zm6.429-4.228c.752.392.926.708.926,1.722,0,.7-.044.915-.229,1.166-.447.588-.85.741-2.19.785l-1.231.033v-3.945H4.827A2.954,2.954,0,0,1,6.429-137.927Z" fill="#fff"/><path d="M97.488-136.293l-1.547,4.707-1.013-1.961c-.567-1.068-1.057-2.016-1.111-2.092a13.641,13.641,0,0,0-1.046,2.833l-.97,2.975,1.013,1.722,1,1.711,1.918-.022,1.907-.033,1.373-4.2a42.362,42.362,0,0,1,1.438-4.086c.033.054.61,1.852,1.275,3.977s1.253,3.977,1.318,4.108c.1.251.142.251,1.95.251,1.34,0,1.874-.033,1.929-.131.054-.076,1.395-3.367,3-7.3l2.9-7.17-1.95.022-1.95.033-1.961,4.577c-1.079,2.517-1.994,4.609-2.038,4.653s-.708-2.038-1.493-4.609L102.01-141H99.024Z" transform="translate(-81.797)" fill="#129fbc"/><path d="M267-129.7c-1.057,2.659-1.046,2.07-.022,4.9l.632,1.722-1.624.033-1.634.033-.479,1.188c-.262.654-.5,1.286-.545,1.395-.054.185.076.2,2.55.2h2.615l.479,1.308.469,1.308h1.994a12.8,12.8,0,0,0,1.983-.076c0-.153-5.383-14.307-5.437-14.307A23.289,23.289,0,0,0,267-129.7Z" transform="translate(-234.628 -8.019)" fill="#fff"/></g></g></svg>